<svg xmlns="http://www.w3.org/2000/svg" xmlns:xlink="http://www.w3.org/1999/xlink" version="1.2" xml:space="preserve" width="19" height="19" style=""><rect id="backgroundrect" width="100%" height="100%" x="0" y="0" fill="none" stroke="none"/>
<g class="currentLayer" style=""><path fill="#F1F2F2" d="M14.700002098083495,0.0000032424926761365214 c0.2,0 0.6000000000000001,0 0.9,0.1 c0.4,0.1 0.7000000000000001,0.2 0.9,0.30000000000000004 c0.4,0.2 0.9,0.7000000000000001 1.4,1.6 c0.5,0.8 0.7000000000000001,1.7000000000000002 0.7000000000000001,2.5 c0,0.2 0,0.5 0,0.7000000000000001 c0,0.2 -0.1,0.5 -0.2,0.8 c-0.1,0.30000000000000004 -0.1,0.5 -0.2,0.6000000000000001 c0,0.1 -0.1,0.4 -0.30000000000000004,0.7000000000000001 S17.800002098083496,7.9000032424926765 17.800002098083496,8.000003242492674 c-0.30000000000000004,0.9 -0.7000000000000001,1.6 -1.1,2.3 c-0.7000000000000001,1.1 -1.7000000000000002,2.3 -2.9,3.5 c-1.2,1.2 -2.4,2.2 -3.5,2.9 c-0.7000000000000001,0.4 -1.5,0.8 -2.3,1.1 c-0.1,0 -0.30000000000000004,0.1 -0.7000000000000001,0.2 c-0.4,0.1 -0.6000000000000001,0.2 -0.7000000000000001,0.30000000000000004 c-0.1,0 -0.30000000000000004,0.1 -0.6000000000000001,0.2 c-0.30000000000000004,0.1 -0.5,0.1 -0.8,0.2 s-0.5,0 -0.7000000000000001,0 c-0.8,0 -1.6,-0.2 -2.5,-0.7000000000000001 c-0.9,-0.5 -1.4,-1 -1.6,-1.4 c-0.1,-0.2 -0.2,-0.5 -0.30000000000000004,-0.9 c-0.1,-0.4 -0.1,-0.7000000000000001 -0.1,-0.9 c0,-0.1 0,-0.2 0,-0.30000000000000004 c0.1,-0.2 0.4,-0.4 1,-0.7000000000000001 c0.2,-0.1 0.4,-0.2 0.7000000000000001,-0.4 c0.30000000000000004,-0.2 0.6000000000000001,-0.30000000000000004 0.8,-0.5 c0.30000000000000004,-0.1 0.5,-0.30000000000000004 0.7000000000000001,-0.4 c0,0 0.1,-0.1 0.30000000000000004,-0.2 c0.2,-0.1 0.30000000000000004,-0.2 0.5,-0.30000000000000004 c0.1,-0.1 0.30000000000000004,-0.1 0.4,-0.1 c0.2,0 0.4,0.1 0.7000000000000001,0.4 c0.30000000000000004,0.30000000000000004 0.5,0.5 0.7000000000000001,0.8 s0.5,0.6000000000000001 0.7000000000000001,0.8 c0.2,0.30000000000000004 0.5,0.4 0.6000000000000001,0.4 c0.1,0 0.2,0 0.30000000000000004,-0.1 c0.1,0 0.2,-0.1 0.30000000000000004,-0.1 s0.2,-0.1 0.30000000000000004,-0.2 s0.2,-0.1 0.30000000000000004,-0.2 c1.2,-0.7000000000000001 2.3,-1.4 3.1,-2.3 s1.6,-1.9 2.3,-3.1 c0,0 0.1,-0.1 0.2,-0.30000000000000004 c0.1,-0.2 0.2,-0.30000000000000004 0.2,-0.30000000000000004 c0,-0.1 0.1,-0.2 0.1,-0.30000000000000004 c0,-0.1 0.1,-0.2 0.1,-0.30000000000000004 c0,-0.2 -0.1,-0.4 -0.4,-0.6000000000000001 c-0.30000000000000004,-0.2 -0.5,-0.5 -0.8,-0.7000000000000001 c-0.30000000000000004,-0.2 -0.6000000000000001,-0.5 -0.8,-0.7000000000000001 c-0.30000000000000004,-0.30000000000000004 -0.4,-0.5 -0.4,-0.7000000000000001 c0,-0.1 0,-0.30000000000000004 0.1,-0.4 c0.1,-0.1 0.2,-0.30000000000000004 0.30000000000000004,-0.5 c0.1,-0.2 0.2,-0.30000000000000004 0.2,-0.30000000000000004 c0.1,-0.2 0.30000000000000004,-0.5 0.4,-0.7000000000000001 c0.1,-0.30000000000000004 0.30000000000000004,-0.5 0.5,-0.8 c0.2,-0.30000000000000004 0.30000000000000004,-0.6000000000000001 0.4,-0.7000000000000001 c0.30000000000000004,-0.6000000000000001 0.5,-1 0.7000000000000001,-1 C14.500002098083495,0.0000032424926761365214 14.600002098083497,0.0000032424926761365214 14.700002098083495,0.0000032424926761365214 z"/></g></svg>